<?xml version="1.0" encoding="utf-8"?>
<!-- Generator: Adobe Illustrator 25.4.1, SVG Export Plug-In . SVG Version: 6.00 Build 0)  -->
<svg version="1.1" id="Layer_1" xmlns="http://www.w3.org/2000/svg" xmlns:xlink="http://www.w3.org/1999/xlink" x="0px" y="0px"
	 viewBox="0 0 250 65.9" style="enable-background:new 0 0 250 65.9;" xml:space="preserve">
<style type="text/css">
	.st0{fill:#808285;}
	.st1{fill:#00A19A;}
	.st2{fill:#000276;}
</style>
<g id="Group_1278" transform="translate(0.904 0)">
	<path id="Path_3259" class="st0" d="M86.7,38.7h-5.3V8.1h17.9v4.5H86.7v8h11.6v4.5H86.7V38.7z"/>
	<path id="Path_3260" class="st0" d="M127.4,39.1c-9.3,0-15.5-6.2-15.5-15.6c0-11.5,8.2-15.9,15.5-15.9c7.4,0,15.6,4.4,15.6,15.9
		C143,33,136.8,39.1,127.4,39.1z M137.7,23.5c0-8-5.3-11.4-10.2-11.4c-4.9,0-10.2,3.5-10.2,11.4c0,6.6,4.1,11.2,10.1,11.2
		C133.6,34.7,137.7,30.1,137.7,23.5L137.7,23.5z"/>
	<path id="Path_3261" class="st0" d="M156.8,32c1.9,0.9,6.2,2.6,9.7,2.6s6-1,6.2-4.3c0.1-2.4-3.5-3.7-7.8-5.1
		c-0.6-0.2-1.2-0.4-1.8-0.6c-7-2.4-6.9-8.1-6.9-8.2c0-5.3,4.1-8.8,12.1-8.8c2.9,0.2,5.8,0.8,8.5,1.9v4.6c-3.4-1.2-5.8-1.9-8.6-1.9
		c-4.6,0-6.4,2-6.5,4.4c0,0.4,0,2.4,3.1,3.3l1.7,0.6c6.8,2.1,11.9,4,11.6,10.2c-0.5,6.5-5.3,8.4-11.7,8.4c-3.3-0.2-6.6-0.9-9.7-2.2
		L156.8,32z"/>
	<path id="Path_3262" class="st0" d="M198.3,38.7h-5.3V8.1h17.9v4.5h-12.5v8h11.6v4.5h-11.6V38.7z"/>
	<path id="Path_3263" class="st0" d="M228.9,29.8l-2.6,8.9H221c3-10.2,5.8-19.2,10.9-30.5h5.3c4.5,9.9,8.1,20.1,10.9,30.5h-5.3
		c-0.8-3-1.7-6-2.6-8.9H228.9z M238.9,25.6c-1.3-3.9-2.7-7.5-4.3-11.7c-1.7,4.2-3.1,7.8-4.3,11.7H238.9z"/>
</g>
<path id="Path_3264" class="st0" d="M81.4,58.1v-8.5h1.1v8.5H81.4z"/>
<path id="Path_3265" class="st0" d="M96.5,49.6h1.1v8.5h-1.2c-1.2-2.5-2.6-4.9-4.1-7.2v7.2h-1.1v-8.5h1.4c1.5,2.1,2.8,4.3,3.9,6.6
	L96.5,49.6z"/>
<path id="Path_3266" class="st0" d="M108.1,58.1v-7.5h-2.7v-0.9h6.4v0.9h-2.6v7.5H108.1z"/>
<path id="Path_3267" class="st0" d="M120.6,56.3c0,0.4,0.2,0.8,1,0.8h3.1v0.9h-3.3c-1.2,0-1.8-0.4-1.8-1.6v-6.8h5.1v0.9h-4.1v2.7
	h3.8v0.9h-3.8L120.6,56.3z"/>
<path id="Path_3268" class="st0" d="M138,58.1c-0.5-0.9-1.1-1.8-1.8-2.7c-0.4-0.6-0.6-0.8-1.1-0.8h-1.1v3.5H133v-8.5h3.3
	c1.2-0.1,2.3,0.8,2.4,2.1c0,0.1,0,0.2,0,0.3c0.1,1.2-0.6,2.2-1.8,2.4c-0.1,0-0.2,0-0.3,0c1,1.1,1.8,2.3,2.5,3.5H138z M136.4,53.7
	c0.6,0,1.3-0.3,1.3-1.6c0.1-0.8-0.5-1.4-1.3-1.5c-0.1,0-0.2,0-0.2,0h-2.2v3.1H136.4z"/>
<path id="Path_3269" class="st0" d="M152.5,49.6h1.1v8.5h-1.2c-1.2-2.5-2.6-4.9-4.1-7.2v7.2h-1.1v-8.5h1.4c1.5,2.1,2.8,4.3,3.9,6.6
	L152.5,49.6z"/>
<path id="Path_3270" class="st0" d="M161.4,58.1c0.8-2.9,1.8-5.7,3-8.5h1.2c1.2,2.7,2.3,5.6,3,8.5h-1.1l-0.8-2.6h-3.6
	c-0.3,0.9-0.5,1.7-0.8,2.6H161.4z M163.5,54.7h3.1c-0.4-1.4-0.9-2.7-1.5-4C164.5,52,164,53.3,163.5,54.7L163.5,54.7z"/>
<path id="Path_3271" class="st0" d="M177.7,58.1v-7.5h-2.7v-0.9h6.4v0.9h-2.6v7.5H177.7z"/>
<path id="Path_3272" class="st0" d="M189.3,58.1v-8.5h1.1v8.5H189.3z"/>
<path class="st0" d="M202.8,49.7c-2.3,0-4.2,1.9-4.2,4.3c0,2.3,1.9,4.2,4.2,4.2h0c2.3,0,4.2-1.9,4.2-4.3
	C207.1,51.6,205.2,49.7,202.8,49.7z M202.6,57.3c-1.8-0.1-3.1-1.7-3-3.4c0-0.2,0-0.4,0-0.6c0.2-1.8,1.7-3.1,3.5-2.9
	c1.8,0.2,3.1,1.7,2.9,3.5c0,0.2,0,0.3,0,0.5C205.9,56.1,204.4,57.5,202.6,57.3z"/>
<path id="Path_3274" class="st0" d="M220.7,49.6h1.1v8.5h-1.2c-1.2-2.5-2.6-4.9-4.1-7.2v7.2h-1.1v-8.5h1.4c1.5,2.1,2.8,4.3,3.9,6.6
	L220.7,49.6z"/>
<path id="Path_3275" class="st0" d="M229.6,58.1c0.8-2.9,1.8-5.7,3-8.5h1.2c1.2,2.7,2.3,5.6,3,8.5h-1.1l-0.8-2.6h-3.6
	c-0.3,0.9-0.5,1.7-0.8,2.6H229.6z M231.8,54.7h3.1c-0.4-1.4-0.9-2.7-1.5-4C232.7,52,232.2,53.3,231.8,54.7L231.8,54.7z"/>
<path id="Path_3276" class="st0" d="M245.8,56.3c0,0.4,0.2,0.8,1,0.8h3.2v0.9h-3.4c-1.3,0-1.8-0.4-1.8-1.6v-6.8h1.1L245.8,56.3z"/>
<g id="Group_1282" transform="translate(615.471 366.045)">
	<path id="Path_3277" class="st1" d="M-561.6-352.9L-561.6-352.9L-561.6-352.9L-561.6-352.9z"/>
	<path id="Path_3278" class="st1" d="M-556.9-319.7L-556.9-319.7L-556.9-319.7L-556.9-319.7z"/>
	<path id="Path_3279" class="st1" d="M-559.9-351L-559.9-351L-559.9-351L-559.9-351L-559.9-351z"/>
	<path id="Path_3280" class="st1" d="M-568.4-303.4c-3.4,1.3-7,1.9-10.7,1.8c-1.1,0-2.3-0.1-3.4-0.2l0,0c-0.2,0-0.3,0-0.5-0.1
		l-0.2,0c-0.2,0-0.3,0-0.5-0.1l-0.3,0c-0.5-0.1-1.1-0.2-1.6-0.3l-0.3-0.1l-0.4-0.1c-0.1,0-0.2-0.1-0.4-0.1s-0.3-0.1-0.4-0.1
		c-0.2-0.1-0.5-0.1-0.7-0.2l-0.3-0.1c-0.2,0-0.3-0.1-0.5-0.1l-0.3-0.1c-0.2-0.1-0.3-0.1-0.5-0.2c-0.1,0-0.2-0.1-0.3-0.1
		c-0.2-0.1-0.5-0.2-0.7-0.3l-0.2-0.1c-0.2-0.1-0.4-0.2-0.6-0.2l-0.3-0.1c-0.2-0.1-0.4-0.2-0.5-0.2l-0.2-0.1
		c-0.3-0.1-0.5-0.2-0.7-0.3c-4.2-2-7.9-4.9-10.9-8.5c-1.5-1.9-2.9-4-4-6.2l0,0c-2.3-4.2-3.5-8.9-3.4-13.7c0-0.4,0-0.8,0-1.2
		c0.8,2,2.6,3.5,4.7,3.8c1.4,0.2,2.9,0.5,4.2,1.1c1,0.5,1.9,1.7,3.1,1.6c0.3,0,0.6-0.3,0.8,0c0.2,0.2,0.1,0.7,0.1,1
		c0.1,0.9,0.4,1.7,0.8,2.5c0.6,1.5,1.4,2.8,2.5,3.9c0.4,0.4,0.9,0.7,1.4,0.9c0.5,0.2,0.9,0.6,1.1,1.1c0.1,0.5,0.2,0.9,0.4,1.4
		c0.5,1.8,1.2,3.5,2,5.1c1.5,3,3.9,6.2,7.6,5.9c0.3,0,0.5-0.2,0.5-0.5c0-0.1,0-0.3-0.1-0.3c-2.6-2.6-1-6.4,0.2-9.3
		c1.2-2.9,2.1-5.9,2.4-9c0.1-1.2,0.1-2.3-1.2-2.8c-1.4-0.5-3-0.2-4.4-0.8c-1.5-0.6-2.5-1.9-3.8-2.8c-1.1-0.8-2.5-1.3-3.9-1.5
		c-0.7-0.1-1.5,0-2.2,0.3c-0.8,0.3-1.8,1.4-2.7,1.2c-0.6-0.2-1-1.1-1.6-1.4c-0.3-0.2-0.6-0.2-1-0.2c-0.1-1-0.1-2.3-1.3-2.2
		c-0.6,0-0.8,0.5-1.2,0.8c-1.1,0.7-2-0.6-1.5-1.6c0.5-0.9,1.6-1.2,2.5-0.8c0.7,0.3,1.2,0.9,1.9,1.3c0.6,0.3,1.3,0.2,1.6-0.4
		c0.1-0.2,0.2-0.4,0.2-0.7c0-0.6-0.1-1.2-0.2-1.8c-0.2-1-0.3-1.6,0.5-2.3c0.4-0.3,0.7-0.8,0.8-1.3c0.1-0.6-0.1-1.2,0.2-1.8
		c0.6-0.9,1.7-1.4,2.5-2.2c0.3-0.3,0.6-0.7,0.8-1.1c0.3-0.5,0.1-1.1,0.3-1.6c0.4-1,2-0.7,2.4-1.9c0.3-1.1-0.9-2.3-1.7-2.8
		c-0.9-0.6-2.3-1.2-3.4-0.5c-1.2,0.8-0.6,3.3-2.5,3.2c-0.6,0-1.1-0.6-1-1.2c0-0.3,0.2-0.6,0.4-0.8c0.4-0.3,0.8-0.7,1.2-1.1
		c0.5-0.7,0.4-1.7-0.4-2.3c-0.1-0.1-0.3-0.2-0.4-0.2c-0.3-0.1-0.6-0.2-0.9-0.2c0.5-0.4,1-0.7,1.5-1c0.1,0.1,0.2,0.2,0.3,0.2
		c0.3,0,0.6,0.1,1,0.2c0.2,0,0.4,0.1,0.5,0.1c0.1,0,0.3,0,0.4,0.1l0,0c0,0,0,0.1,0,0.1c0,0.1,0,0.2,0,0.3c0,0.3,0.1,0.6,0.3,0.9
		c0.2,0.2,0.5,0.3,0.7,0.4c0.3,0.1,0.6,0.2,0.9,0.3c0.6,0.1,1.2,0.1,1.8-0.2c0.5-0.2,0.9-0.7,1-1.3c0.1-0.6-0.1-1.3-0.6-1.8
		c-0.4-0.5-0.9-0.9-1.5-1.2c-0.2-0.2-0.5-0.3-0.7-0.4c1.1-0.5,2.3-0.9,3.5-1.2c-0.3,0.1-0.5,0.2-0.8,0.2l0,0c0,0,0,0,0,0
		c0.1,0.2,0.3,0.3,0.6,0.3c1.1-0.2,1.3,1.1,1.2,1.9c-0.1,0.7,0.1,1.5,0.5,2.1c0.8,0.9,2.2,1,3.1,0.2c0.1-0.1,0.2-0.2,0.2-0.2
		c0.4-0.5,0.7-1,1-1.5c0.4-0.7,1.1-1.1,1.9-1.2c1-0.2,1.9-0.8,2.5-1.6l0.2-0.3l0.4-0.7l0,0l0,0c-5.5-1.4-11.4-1.2-16.8,0.6
		c-0.3,0.1-0.5,0.2-0.8,0.3c-10.4,4-17.6,13.6-18.5,24.8l0,0.2c0,0.3,0,0.5-0.1,0.8c0,0.1,0,0.2,0,0.2c0,0.1,0,0.2,0,0.3
		c0,0.2,0,0.3,0,0.5c0,0.2,0,0.4,0,0.6c0,0.1,0,0.2,0,0.3c0,18.2,14.8,33,33,32.9c4.9,0,9.7-1.1,14.1-3.2L-568.4-303.4z"/>
	<g id="Group_1281" transform="translate(24.432)">
		<path id="Path_3281" class="st2" d="M-603.7-357.4c-0.2,0.4-0.1,0.7,0,0.8c0.2,0.1,0.4,0.2,0.6,0.1c0.1,0,0.2-0.1,0.3-0.1
			c0.4-0.1,0.7-0.3,1-0.5c0.4-0.2,0.5-0.7,0.3-1.1c0-0.1,0-0.1-0.1-0.1l0-0.1c0,0,0-0.1-0.1-0.1c-0.1-0.1-0.1-0.2-0.1-0.3
			c0-0.2,0-0.4-0.1-0.6c-0.1-0.1-0.2-0.2-0.3-0.2c-0.1,0-0.3,0.1-0.4,0.1c-0.2,0.1-0.4,0.2-0.5,0.3l0,0c-0.3,0.3-0.4,0.7-0.3,1.1
			c0,0.2,0,0.2-0.1,0.3C-603.6-357.6-603.7-357.5-603.7-357.4z"/>
		<path id="Path_3282" class="st2" d="M-584.3-350.9C-584.3-350.9-584.4-350.9-584.3-350.9l-0.1,0.1l0,0c-0.4,0.3-0.9,0.4-1.4,0.4
			c-0.4,0-0.9-0.2-1.3-0.1c-1,0.1-1.4,1.1-2.3,1.2c-1.9,0.4-3-2.1-4.9-1.3c-1,0.5-2,1-3,1.6c-0.9,0.5-1.6,1.1-2.2,2
			c-0.4,0.8-0.7,1.5-1,2.3c-0.5,0.9-0.9,1.8-1.3,2.8c-0.8,3.3,2.1,7.7,5.7,7.5c0.9-0.1,1.7-0.4,2.5-0.9c1-0.6,2.2-1.4,3.4-1.1
			s0.5,2,1,2.9c0.4,0.7,0.9,1.3,1.5,1.8c1,1.1,0.4,2.3,0.5,3.6c0.2,1.1,0.7,2,1.3,2.9c1.3,2,2.8,3.9,4.5,5.6
			c-4.9,9.3-14.5,15.2-25,15.4c4.3,0.3,8.6-0.2,12.7-1.5c11.7-4,19.6-15,19.8-27.3c-0.1-18.2-14.9-32.9-33.1-32.9
			c-2.8,0-5.7,0.4-8.4,1.1c6.4-0.9,12.8,0.1,18.6,3c0.3,0.1,0.6,0.3,0.9,0.5c1,0.7-1.2,1.3-1.2,1.3c-1,0.3-1.9,0.8-2.6,1.5
			c-0.8,0.7-1.8,1.8-1.4,2.9c0.3,0.7,1.1,1.2,0.4,1.9c-0.5,0.4-1.2,0.7-1.8,0.9c-1,0.5-1.6,1.7-1.4,2.8c0.3,2.8,3.6,2,5,0.5
			c1-1.1,1.5-2.5,2.6-3.5c0.5-0.6,1.3-0.8,2.1-0.7c1,0.2,1.1,0.9,1.3,1.7c0.2,1,1.2,1.6,2.2,1.4c0.1,0,0.2-0.1,0.4-0.1
			c0.8-0.3,1.4-0.9,2.1-1.3c0.7-0.3,1.4-0.5,2.2-0.5v0h0.1c0,0,0,0,0.1,0h0.2c0.3,0.4,0.6,0.8,1,1.3"/>
	</g>
</g>
</svg>
