<svg xmlns="http://www.w3.org/2000/svg" width="277.423" height="65.73" viewBox="0 0 277.423 65.73"><g transform="translate(-69.961 -68.109)"><g transform="translate(69.961 68.109)"><path d="M91.3,83.918a10.938,10.938,0,0,0-6.492-5.392C78.637,76.55,68.873,76.1,68.873,76.1s-11.709-.5-16.3-2.231C45.618,70.746,63.829,60.16,72.3,58.6c7.722-1.2,4.634,2.573,4.634,2.573l-5.511,5.662H84.169L90.539,59.4a6.22,6.22,0,0,0,1.527-4.269c-.089-2.369-2.089-6.315-9.809-6.144-17.1.379-33.895,7.265-41.18,20.247-2.485,4.347-2.058,8.923,3.088,12.354,5.544,3.7,22.375,3.294,30.542,4.461,6.006.857,7.382,3.941,4.119,7.207-4.465,3.97-11.219,8-17.414,9.144l-10.2,12.125C66.987,116.768,98.626,98.411,91.3,83.918Z" transform="translate(-39.604 -48.984)" fill="#201d1e"/><path d="M173.375,151.455l5.3-5.835H165.688l-4.838,5.32Z" transform="translate(-135.869 -125.71)" fill="#e78137"/><path d="M63.061,244.562c-2.625.231-4.457-.208-4.29-1.545.344-2.746,11.153-14.655,11.153-14.655l-6.521-.616-4.976-.515c-1.887,2.231-4.8,5.254-8.064,9.78-4.965,6.894-8.923,14.414,2.584,18.84Z" transform="translate(-44.259 -190.505)" fill="#e78137"/></g><g transform="translate(142.461 88.329)"><path d="M359.913,193.144c.078,1.079.971,1.392,3.888,1.392,3.021,0,3.888-.264,3.888-1.157,0-.5-.394-.841-1.076-.919-.629-.052-1.786-.078-6.359-.078-3.52-.052-4.993-1.157-4.993-3.81,0-1.916.684-3.074,2.154-3.624,1-.394,3.178-.577,6.437-.577,4.231,0,5.779.264,6.832,1.157.655.525.893,1.183,1,2.679h-4.729c-.1-.394-.156-.473-.316-.577a6.522,6.522,0,0,0-2.917-.368c-2.917,0-3.81.238-3.81,1.023,0,.5.368.763,1.1.815.763.052,1.578.078,6.359.1,3.6.026,4.967,1.079,4.967,3.862,0,3.546-1.682,4.361-8.882,4.361-4.521,0-6.069-.264-7.174-1.287a3.7,3.7,0,0,1-1.1-3Z" transform="translate(-355.18 -179.589)"/><path d="M425.291,197.758v-1.864h-.235c-.711,1.578-2.18,2.18-5.306,2.18-2.891,0-4.413-.447-5.544-1.578-1.131-1.157-1.366-2.1-1.366-5.492V185.33h4.651V191c0,1.812.13,2.392.629,2.865.551.525,1.261.684,3.021.684,1.656,0,2.5-.183,3.074-.684.658-.577.815-1.235.815-3.546V185.33h4.651v12.428Z" transform="translate(-394.047 -180.236)"/><path d="M470.88,184.676h4.387v1.682h.238c.815-1.525,2.128-2,5.7-2,3.2,0,4.86.368,5.912,1.366,1,.893,1.287,2.076,1.287,5.228,0,5.414-1.209,6.463-7.408,6.463-3.152,0-4.335-.447-5.254-1.916h-.209v6.779h-4.651v-17.6Zm4.648,6.359c0,2.418.684,2.891,4.126,2.891,1.786,0,2.891-.183,3.39-.551.551-.394.711-1.049.711-2.679,0-2.392-.629-2.839-3.94-2.839C476.082,187.857,475.528,188.252,475.528,191.035Z" transform="translate(-433.17 -179.582)"/><path d="M545.711,193.083c-.342,3.442-2.05,4.283-8.7,4.283-3.6,0-5.306-.316-6.437-1.157-1.209-.919-1.578-2.154-1.578-5.332,0-3.338.368-4.573,1.682-5.492,1.209-.841,2.757-1.1,6.806-1.1,4.2,0,5.674.264,6.805,1.183,1.1.919,1.525,2.311,1.525,5.124,0,.156,0,.737-.026,1.261H533.654c0,1.261.13,1.682.577,2.024.5.368,1.47.525,3.152.525,2.969,0,3.52-.212,3.706-1.314Zm-4.573-3.784c-.026-.971-.078-1.209-.368-1.5-.42-.447-1.366-.629-3.2-.629-3.126,0-3.862.394-3.914,2.128h7.487Z" transform="translate(-472.346 -179.528)"/><path d="M590.314,184.676v1.864h.238c.867-1.578,2.18-2.18,4.781-2.18,3.758,0,5.019,1.261,5.019,4.993v.841h-4.387c0-1.838-.525-2.337-2.445-2.337a2.938,2.938,0,0,0-2.363.893c-.446.6-.577,1.287-.577,3.2v5.15H585.93V184.676Z" transform="translate(-510.721 -179.582)"/><path d="M638.851,169.7v3.494H634.2V169.7Zm0,5.094v12.428H634.2V174.794Z" transform="translate(-543.258 -169.7)"/><path d="M659.307,184.676v1.89h.238c.841-1.6,2.259-2.207,5.28-2.207,2.969,0,4.495.42,5.6,1.551,1.131,1.183,1.366,2.128,1.366,5.544V197.1h-4.651v-5.648c0-2-.078-2.445-.577-2.917-.5-.5-1.392-.684-3.126-.684-1.708,0-2.627.238-3.178.815-.577.6-.684,1.183-.684,3.468V197.1H654.92V184.676Z" transform="translate(-557.225 -179.582)"/><path d="M716.393,193.144c.078,1.079.971,1.392,3.888,1.392,3.021,0,3.888-.264,3.888-1.157,0-.5-.394-.841-1.076-.919-.632-.052-1.786-.078-6.359-.078-3.52-.052-4.993-1.157-4.993-3.81,0-1.916.684-3.074,2.154-3.624,1-.394,3.178-.577,6.437-.577,4.231,0,5.779.264,6.832,1.157.658.525.893,1.183,1,2.679h-4.729c-.1-.394-.156-.473-.316-.577a6.523,6.523,0,0,0-2.917-.368c-2.917,0-3.81.238-3.81,1.023,0,.5.368.763,1.1.815.763.052,1.578.078,6.359.1,3.6.026,4.967,1.079,4.967,3.862,0,3.546-1.682,4.361-8.882,4.361-4.521,0-6.069-.264-7.174-1.287a3.7,3.7,0,0,1-1.1-3Z" transform="translate(-595.471 -179.589)"/><path d="M769.55,184.676h4.387v1.682h.238c.815-1.525,2.128-2,5.7-2,3.2,0,4.86.368,5.912,1.366,1,.893,1.287,2.076,1.287,5.228,0,5.414-1.209,6.463-7.408,6.463-3.152,0-4.335-.447-5.254-1.916H774.2v6.779h-4.651v-17.6Zm4.651,6.359c0,2.418.684,2.891,4.126,2.891,1.786,0,2.891-.183,3.39-.551.551-.394.711-1.049.711-2.679,0-2.392-.629-2.839-3.941-2.839C774.752,187.857,774.2,188.252,774.2,191.035Z" transform="translate(-634.493 -179.582)"/><path d="M844.391,193.083c-.342,3.442-2.05,4.283-8.7,4.283-3.6,0-5.306-.316-6.437-1.157-1.209-.919-1.578-2.154-1.578-5.332,0-3.338.368-4.573,1.682-5.492,1.209-.841,2.757-1.1,6.805-1.1,4.2,0,5.674.264,6.805,1.183,1.1.919,1.525,2.311,1.525,5.124,0,.156,0,.737-.026,1.261H832.334c0,1.261.13,1.682.577,2.024.5.368,1.47.525,3.152.525,2.969,0,3.52-.212,3.706-1.314Zm-4.573-3.784c-.026-.971-.078-1.209-.368-1.5-.42-.447-1.366-.629-3.2-.629-3.126,0-3.862.394-3.914,2.128h7.487Z" transform="translate(-673.677 -179.528)"/><path d="M900.541,192.067c-.078,2.076-.342,2.969-1.157,3.784-1.183,1.209-2.705,1.525-7.594,1.525-3.81,0-5.414-.264-6.646-1.157-1.209-.841-1.6-2.18-1.6-5.466,0-3,.368-4.309,1.47-5.2,1.183-.971,2.813-1.261,7.014-1.261,4.126,0,5.939.316,7.122,1.287,1,.789,1.34,1.76,1.418,4.1h-4.729c-.156-1.418-1.079-1.89-3.81-1.89-3.233,0-3.836.5-3.836,3.1,0,1.63.264,2.259,1.1,2.6a7.905,7.905,0,0,0,2.783.368c2.731,0,3.52-.368,3.732-1.786h4.733Z" transform="translate(-711.33 -179.535)"/><path d="M944.812,176.55v2.865h7.356v3.338h-7.356v3.624c0,1.366.026,1.551.238,1.864.238.42.711.6,1.6.6.945,0,1.47-.183,1.682-.629.156-.29.183-.394.183-1.682h4.257c-.052,2.366-.238,3.126-.945,4.045-.945,1.183-2.366,1.578-5.57,1.578-2.969,0-4.178-.264-5.1-1.157a3.556,3.556,0,0,1-.971-2.757c-.026-.212-.026-.841-.026-1.864v-3.624H937.72v-3.338h2.444V176.55Z" transform="translate(-747.851 -174.317)"/></g></g></svg>